<?xml version="1.0" encoding="utf-8"?>
<!-- Generator: Adobe Illustrator 28.3.0, SVG Export Plug-In . SVG Version: 6.00 Build 0)  -->
<svg version="1.1" id="Layer_1" xmlns="http://www.w3.org/2000/svg" xmlns:xlink="http://www.w3.org/1999/xlink" x="0px" y="0px"
	 viewBox="0 0 48 48" style="enable-background:new 0 0 48 48;" xml:space="preserve">
<style type="text/css">
	.st0{display:none;}
	.st1{display:inline;fill:#3C3C3B;}
	.st2{display:inline;}
	.st3{fill:#008AD1;}
	.st4{fill:#FFFFFF;}
	.st5{fill:#3C3C3B;}
</style>
<g class="st0">
	<path class="st1" d="M327.9,297.6h-59.3c-1,1-1.8,2-2.7,3.1h64.7C329.8,299.6,328.9,298.6,327.9,297.6z M356.5,297.6H239.9
		c-3.9,0-7.1,3-7.1,6.8v43c0,3.7,3.2,6.8,7.1,6.8h116.6c3.9,0,7.1-3,7.1-6.8v-43C363.6,300.6,360.4,297.6,356.5,297.6z M360.3,347.4
		c0,2-1.7,3.7-3.9,3.7H239.9c-2.1,0-3.9-1.7-3.9-3.7v-43c0-2,1.7-3.7,3.9-3.7h116.6c2.1,0,3.9,1.7,3.9,3.7V347.4z M327.9,297.6
		h-59.3c-1,1-1.8,2-2.7,3.1h64.7C329.8,299.6,328.9,298.6,327.9,297.6z"/>
</g>
<g class="st0">
	<g class="st2">
		<path class="st3" d="M351.6,297.6c-0.7-1.4-1.5-2.8-2.4-4.2c-0.2,0-0.4,0.1-0.6,0.1c-3.4,0.8-6.8,1.5-10.1,2.3
			c-0.3-0.4-0.6-0.7-0.9-1.1c-1.1-1.4-2.3-2.7-3.5-3.9c-1.9-1.9-3.8-3.7-5.9-5.3c0.2-1.4,0.5-2.8,0.8-4.2c0.5-2.2,1.1-4.4,1.3-6.7
			c-5.8-3.7-12.1-6.3-18.9-7.8c-2.3,3-3.8,6.4-6.3,9.3c-0.7-0.1-1.3-0.2-2-0.3c-4.1-0.5-8.1-0.2-12.1,0.3c0,0,0-0.1-0.1-0.1
			c-2.4-2.9-3.8-6.3-6.2-9.2c-6.8,1.7-13.1,4.1-19,8c0.6,2.9,1.3,5.7,1.9,8.6c0.1,0.7,0.3,1.3,0.4,2c-2.6,2.1-5,4.4-7.2,6.7
			c-1.1,1.2-2.1,2.3-3.2,3.5c-3.8-0.4-7.2-1.8-10.7-2.1c-0.8,1.3-1.6,2.6-2.3,3.9c-0.6,1-1.1,2-1.5,3.1h22.7
			c0.8-1.1,1.7-2.1,2.7-3.1c7.3-7.6,17.5-12.5,28.7-12.7c12-0.2,23,4.6,30.6,12.7c1,1,1.8,2,2.7,3.1h22.5
			C352.7,299.7,352.2,298.6,351.6,297.6z"/>
	</g>
	<g class="st2">
		<path class="st3" d="M350.3,351h-19.6c-0.8,1.1-1.7,2.1-2.7,3.1c-7.6,7.9-18.2,12.6-29.4,12.7c-12.4,0.1-22.8-5-30.1-12.7
			c-0.9-1-1.8-2-2.7-3.1h-16.8c-1.2,1.1-2.5,2.1-3.9,3.1c0,0,0,0,0,0c0.6,1.5,1.5,2.8,2.4,4.2c0.2,0.3,0.4,0.5,0.5,0.8
			c1.6-0.7,3.2-1.5,4.9-2.1c0.6-0.2,1.3-0.4,2-0.5c0,0,0,0,0.1,0c1.3-0.2,2.5-0.1,3.5,0.2c1.7,0.6,2.8,1.9,3.2,3.6
			c0.2,1,0.2,2.2-0.2,3.5c-0.7,2.4-2,4.4-3.5,6.4c1.3,1.5,2.8,2.6,4.4,3.7c1.1-0.5,1.6-1.5,2.4-2.2c0.8-0.7,1.7-1.4,2.6-2
			c0.6-0.4,1.3-0.7,2-1c3.7-1.4,6.7,0.4,7.3,4.3c0.4,2.2,0.1,4.4-0.5,6.5c-0.1,0.6-0.5,1.1-0.3,1.9c1.6,0.8,3.4,1.4,5.3,1.8
			c0.5-1.1,0.9-2.1,1.4-3.1c0.8-1.7,1.8-3.1,3.3-4.3c2.3-1.9,4.8-1.9,6.7-0.2c0.5,0.4,0.9,0.9,1.3,1.6c1.6,2.6,2.1,5.5,2,8.5
			l5.9,0.3c0.3-1.9,0.2-3.8,0.7-5.6c0.5-1.8,1.1-3.7,2.4-4.9c0.6-0.6,1.5-1.1,2.5-1.3c3.1-0.6,5,1.5,6.7,3.7c1.1,1.4,1.7,3,2.5,4.6
			c2-0.4,3.8-1.1,5.5-2.1c-0.6-2.4-1.4-4.7-1.3-7.1c0.3-4.8,3.4-7,7.6-5.5c0.3,0.1,0.7,0.3,1,0.4c2.2,1.1,3.9,2.8,5.6,4.5
			c1.7-1.1,3.1-2.4,4.3-3.8c-0.3-1-1-1.5-1.5-2.3c-0.9-1.4-1.7-2.8-2.2-4.5c-0.3-1.1-0.4-2.2-0.3-3.1c0.4-2.9,2.8-4.6,6.4-4.3
			c2.5,0.2,4.8,1.2,7.1,2.3c0.8-1,1.4-2.1,2-3.3c0.3-0.6,0.6-1.1,0.9-1.7C351.6,351.7,350.9,351.4,350.3,351z"/>
	</g>
</g>
<g>
	<g>
		<path class="st4" d="M45.4,14.5H2.6c-0.8,0-1.4,0.6-1.4,1.4v16.2c0,0.8,0.6,1.4,1.4,1.4h42.8c0.8,0,1.4-0.6,1.4-1.4V15.9
			C46.8,15.1,46.2,14.5,45.4,14.5z"/>
		<path class="st5" d="M45.4,13.3H2.6c-1.4,0-2.6,1.1-2.6,2.6v16.2c0,1.4,1.2,2.6,2.6,2.6h42.8c1.4,0,2.6-1.1,2.6-2.6V15.9
			C48,14.5,46.8,13.3,45.4,13.3z M46.8,32.1c0,0.8-0.6,1.4-1.4,1.4H2.6c-0.8,0-1.4-0.6-1.4-1.4V15.9c0-0.8,0.6-1.4,1.4-1.4h42.8
			c0.8,0,1.4,0.6,1.4,1.4V32.1z"/>
	</g>
	<g>
		<path class="st3" d="M13.1,17.1v3.3h-1.5c-0.7,0-1.3,0.1-1.8,0.2c-0.5,0.2-0.9,0.4-1.3,0.8C7.8,22.1,7.5,23,7.5,24
			c0,1,0.3,1.8,1,2.5c0.4,0.4,0.9,0.7,1.4,0.9c0.5,0.2,1.1,0.2,1.9,0.2h1.3v3.3h-2c-1.8,0-3.2-0.3-4.4-1c-1.4-0.8-2.4-2-3-3.5
			c-0.3-0.8-0.4-1.6-0.4-2.4C3.3,23,3.6,22,4.1,21c0.4-0.8,0.9-1.4,1.5-2c0.9-0.8,2-1.4,3.2-1.6c0.7-0.2,1.6-0.2,2.5-0.2H13.1z"/>
		<path class="st3" d="M15,17.1h6.3c0.9,0,1.7,0.1,2.3,0.2c0.6,0.2,1.1,0.4,1.6,0.8c0.5,0.4,0.8,0.8,1,1.4c0.2,0.6,0.3,1.3,0.3,2.1
			v9.3h-4v-9.1c0-0.5-0.1-0.9-0.3-1.1c-0.2-0.2-0.6-0.3-1.2-0.3H19v10.5h-4V17.1z"/>
		<path class="st3" d="M28.8,17.1h10.3c1.3,0,2.2,0.1,2.8,0.2c0.6,0.2,1.1,0.4,1.6,0.9c0.4,0.4,0.7,0.9,0.9,1.5
			c0.2,0.6,0.3,1.3,0.3,2.2v9h-4v-8.8c0-0.6-0.1-1.1-0.4-1.3c-0.2-0.2-0.7-0.3-1.3-0.3h-6.2v10.5h-4V17.1z M38.6,22.4v8.5h-3.7v-8.5
			H38.6z"/>
	</g>
</g>
<text transform="matrix(1 0 0 1 240.2827 344.6046)" class="st0" style="font-family:'NPSSignage1945'; font-size:34.944px;">CNM</text>
</svg>
